<?xml version="1.0" encoding="utf-8"?>
<!-- Generator: Adobe Illustrator 23.0.1, SVG Export Plug-In . SVG Version: 6.00 Build 0)  -->
<svg version="1.1" id="Layer_1" xmlns="http://www.w3.org/2000/svg" xmlns:xlink="http://www.w3.org/1999/xlink" x="0px" y="0px"
	 viewBox="0 0 343.86 343.6" style="enable-background:new 0 0 343.86 343.6;" xml:space="preserve">
<style type="text/css">
	.st0{fill:#FFFFFF;}
</style>
<path class="st0" d="M171.93,9.38C82.16,9.38,9.39,82.15,9.39,171.92s72.77,162.54,162.54,162.54s162.54-72.77,162.54-162.54
	S261.69,9.38,171.93,9.38z M263.66,215.69h-93.23v35.86c0,9.19-11.09,13.8-17.6,7.31l-79.91-79.63c-4.05-4.03-4.05-10.58,0-14.62
	l79.91-79.63c6.51-6.48,17.6-1.87,17.6,7.31v35.86h93.23c5.7,0,10.32,4.62,10.32,10.32v66.89
	C273.98,211.07,269.36,215.69,263.66,215.69z"/>
</svg>
